HIERARCHY
ROOT Hips
{
    OFFSET 0.000000 0.000000 0.000000
    CHANNELS 6 Xposition Yposition Zposition Zrotation Xrotation Yrotation
    JOINT Spine
    {
        OFFSET -0.000000 7.856138 0.000000
        CHANNELS 3 Zrotation Xrotation Yrotation
        JOINT Spine1
        {
            OFFSET -0.000000 20.830866 0.000000
            CHANNELS 3 Zrotation Xrotation Yrotation
            JOINT Neck
            {
                OFFSET -0.000000 20.745317 1.885938
                CHANNELS 3 Zrotation Xrotation Yrotation
                JOINT Head
                {
                    OFFSET -0.000000 13.412918 -1.916131
                    CHANNELS 3 Zrotation Xrotation Yrotation
                    End Site
                    {
                        OFFSET -0.000000 23.951641 0.000000
                    }
                }
            }
            JOINT LeftShoulder
            {
                OFFSET 3.826675 19.078362 -0.073511
                CHANNELS 3 Zrotation Xrotation Yrotation
                JOINT LeftArm
                {
                    OFFSET 10.442133 0.000000 0.000000
                    CHANNELS 3 Zrotation Xrotation Yrotation
                    JOINT LeftForeArm
                    {
                        OFFSET 37.051945 0.000000 0.000000
                        CHANNELS 3 Zrotation Xrotation Yrotation
                        JOINT LeftHand
                        {
                            OFFSET 24.394852 0.000000 0.000000
                            CHANNELS 3 Zrotation Xrotation Yrotation
                            End Site
                            {
                                OFFSET 14.370985 0.000000 0.000000
                            }
                        }
                    }
                }
            }
            JOINT RightShoulder
            {
                OFFSET -3.827599 19.078362 -0.073511
                CHANNELS 3 Zrotation Xrotation Yrotation
                JOINT RightArm
                {
                    OFFSET -10.442133 0.000000 0.000000
                    CHANNELS 3 Zrotation Xrotation Yrotation
                    JOINT RightForeArm
                    {
                        OFFSET -37.051945 0.000000 0.000000
                        CHANNELS 3 Zrotation Xrotation Yrotation
                        JOINT RightHand
                        {
                            OFFSET -24.394852 0.000000 0.000000
                            CHANNELS 3 Zrotation Xrotation Yrotation
                            End Site
                            {
                                OFFSET -14.370985 0.000000 0.000000
                            }
                        }
                    }
                }
            }
        }
    }
    JOINT LeftUpLeg
    {
        OFFSET 9.580656 0.000000 0.000000
        CHANNELS 3 Zrotation Xrotation Yrotation
        JOINT LeftLeg
        {
            OFFSET -0.000000 -43.769192 0.000000
            CHANNELS 3 Zrotation Xrotation Yrotation
            JOINT LeftFoot
            {
                OFFSET -0.000000 -42.531967 0.000000
                CHANNELS 3 Zrotation Xrotation Yrotation
                JOINT LeftToeBase
                {
                    OFFSET -0.000000 -6.227426 14.370985
                    CHANNELS 3 Zrotation Xrotation Yrotation
                    End Site
                    {
                        OFFSET -0.000000 0.000000 3.832262
                    }
                }
            }
        }
    }
    JOINT RightUpLeg
    {
        OFFSET -9.580656 0.000000 0.000000
        CHANNELS 3 Zrotation Xrotation Yrotation
        JOINT RightLeg
        {
            OFFSET -0.000000 -43.769192 0.000000
            CHANNELS 3 Zrotation Xrotation Yrotation
            JOINT RightFoot
            {
                OFFSET -0.000000 -42.531967 0.000000
                CHANNELS 3 Zrotation Xrotation Yrotation
                JOINT RightToeBase
                {
                    OFFSET -0.000000 -6.227426 14.370985
                    CHANNELS 3 Zrotation Xrotation Yrotation
                    End Site
                    {
                        OFFSET -0.000000 0.000000 3.832262
                    }
                }
            }
        }
    }
}
MOTION
Frames:    4
Frame Time:    0.008333
13.520202    93.027710    -24.950153    -1.309527    -1.374125    90.348373    2.035296    -5.994103    1.813789    1.247902    2.869817    1.675943    -0.251164    6.954465    -5.340644    7.496772    -3.325396    -4.255465    11.663124    0.044079    4.416031    -15.855434    7.581520    -11.826360    6.950038    -2.512789    -3.638717    -8.400298    -2.383862    1.252676    -14.721730    1.326119    1.247269    17.638062    0.770056    2.481025    -6.166562    -3.077507    4.312883    -6.941610    -2.767703    -1.282581    2.902417    1.035508    0.007309    -4.842246    5.516089    6.248420    8.551466    -10.741885    10.724769    0.000000    0.000000    0.000000    -6.775415    -3.312188    -2.395211    1.221456    10.471660    -13.060870    10.178644    -5.874188    5.130953    0.000000    0.000000    0.000000    
13.452059    93.037338    -25.234694    -1.166608    -1.463990    90.169388    2.025293    -5.903537    1.812434    1.442368    3.203670    1.667650    -0.126002    6.810662    -5.261190    7.178664    -3.551831    -4.223906    11.574281    -0.084629    4.574299    -15.842383    7.615031    -11.833445    6.939984    -2.534911    -3.711616    -7.468348    -2.379205    1.061288    -14.818510    1.260919    1.227086    17.801872    1.020494    2.704596    -6.260634    -3.124579    4.523927    -6.556338    -2.803857    -1.285108    2.828132    1.323629    -0.054919    -4.912348    5.173245    6.528340    8.646526    -10.631039    10.740351    0.000000    0.000000    0.000000    -6.738148    -4.106919    -2.158531    1.493706    12.303615    -13.173412    10.193527    -6.759387    4.423231    0.000000    0.000000    0.000000    
13.421124    93.050858    -25.367334    -1.086375    -1.566000    90.072945    2.101918    -5.822594    1.813006    1.513399    3.279771    1.662752    -0.335624    6.804976    -5.248818    7.454234    -3.585984    -4.142746    11.554310    -0.189475    4.626672    -15.903526    7.641624    -11.814370    6.958938    -2.461795    -3.637417    -7.602886    -2.312186    1.076161    -14.820154    1.317046    1.296244    17.820133    0.996352    2.764460    -6.176226    -3.166216    4.716606    -6.686267    -2.836544    -1.292670    2.812087    1.456739    0.009467    -4.857363    5.042633    6.736321    8.615534    -10.616326    10.599723    0.000000    0.000000    0.000000    -6.622260    -4.485482    -2.217796    1.536347    13.216282    -13.075622    10.260056    -7.159090    4.340870    0.000000    0.000000    0.000000    
13.390705    93.065331    -25.480974    -1.001492    -1.640197    90.048546    2.079146    -5.766482    1.768150    1.659119    3.412611    1.614017    -0.277385    6.770500    -5.206446    7.231147    -3.688107    -4.135998    11.531040    -0.261007    4.707841    -16.009844    7.536160    -11.831060    7.067642    -2.350192    -3.560985    -7.850423    -2.196282    0.961227    -14.892119    1.301360    1.349180    17.934509    1.274329    2.830471    -6.237103    -3.297780    4.800765    -6.615301    -2.976714    -1.035315    2.778366    1.570846    -0.002495    -4.789598    4.922554    7.085151    8.539192    -10.596073    10.300671    0.000000    0.000000    0.000000    -6.519299    -4.759275    -2.567922    1.590474    13.941105    -12.656115    10.541430    -7.490566    4.662510    0.000000    0.000000    0.000000    
